<?xml version="1.0" encoding="utf-8"?>
<!-- Generator: Adobe Illustrator 22.1.0, SVG Export Plug-In . SVG Version: 6.00 Build 0)  -->
<svg version="1.1" id="Слой_1" xmlns="http://www.w3.org/2000/svg" xmlns:xlink="http://www.w3.org/1999/xlink" x="0px" y="0px"
	 viewBox="0 0 595.3 142.9" style="enable-background:new 0 0 595.3 142.9;" xml:space="preserve">
<style type="text/css">
	.st0{stroke:#000000;stroke-miterlimit:10;}
	.st1{fill:none;stroke:#000000;stroke-miterlimit:10;}
	.st2{fill:none;stroke:#000000;stroke-width:0.5;stroke-miterlimit:10;}
	.st3{fill:none;stroke:#000000;stroke-width:0.75;stroke-miterlimit:10;}
</style>
<path class="st0" d="M60.2,115.6c-3.4,0.6-6.4-3-6.6-6.4c-0.2-3.4,1.5-6.7,3.2-9.7s3.4-6.3,3.2-9.7c-0.3-4.3-3.4-7.9-4.4-12.1
	c-1-4.1,0.4-8.7,3.5-11.6c3.1-2.9,7.7-4,11.8-2.9c-3.5,1.3-4.4,6-3.3,9.5c1.1,3.5,3.6,6.4,5.2,9.8c1.6,3.3,2,7.8-0.7,10.4
	c-0.9,0.9-2.1,1.4-2.9,2.4c-2.3,2.7-0.7,6.8,0.4,10.2c1.1,3.4,0.4,8.5-3.2,8.8"/>
<path class="st0" d="M87.2,112.3c-4.1-2.4-5.3-8-4.2-12.6s4-8.6,6.3-12.7c2.3-4.1,4.3-8.9,3.3-13.6C91.4,67.8,86,63,87,57.3
	c1.4-8.1,14-9.7,16.1-17.7c1.5-5.9-3.8-11.3-8.9-14.7c3.9,2.6,7.9,5.2,10.9,8.8c3,3.6,5,8.4,4.2,13c-0.6,3.5-2.8,6.6-3.3,10.2
	c-1.5,9.8,9.6,19.2,5.8,28.4c-2.4,5.7-9.7,8.3-11.8,14.1c-1.9,5.3,1.3,10.8,4.3,15.5"/>
<path class="st1" d="M123,110c1.8-4.7,0.2-10.7,3.6-14.5c1.6-1.7,4-2.5,6.3-3.1c7.2-1.6,15.2-1,21.5,2.9c6.3,3.9,10.6,11.4,9.6,18.7
	"/>
<path class="st1" d="M151.3,95.4c0.4-8.1,8.6-14.4,16.8-14.4s15.6,5.1,20.3,11.8s6.9,14.7,8.5,22.7"/>
<path class="st1" d="M377.8,108.7c-3.2-3.8-0.8-9.7,2.1-13.7c3.9-5.4,9-10.5,15.6-11.4c7.9-1.1,15.3,4.1,21.1,9.7
	c4.5,4.3,8.9,9.6,9,15.9"/>
<path class="st0" d="M478.6,109.7c-5-3.3-7.5-9.8-5.9-15.6c0.9-3.2,2.8-6,4.1-9.1c1.3-3.1,1.7-6.8-0.2-9.5c-1.2-1.7-3.4-3-3.5-5.1
	c-0.1-4.5,8.7-4.2,9.3-8.7c4.3,1.6,7.1,6.6,6,11.1c-0.3,1.2-0.8,2.5-0.8,3.7c0.1,4.8,7.6,6.6,8,11.3c0.3,4-4.5,6.1-6.9,9.3
	c-2.8,3.6-2.1,9.3,1.4,12.2"/>
<path class="st0" d="M161.5,81.9c-4.6-3.2-8.7-7.1-12.3-11.4c-3-3.6-5.3-9.7-1.5-12.4c2-1.4,4.9-1.1,6.9,0.3c2,1.4,3.3,3.6,4.4,5.8
	c-3.2-4.2,0-11.2,5.1-12c5.2-0.8,10.1,4.5,9.5,9.7c-1.3-5,5.4-9.4,10.1-7.2c4.7,2.2,6.3,8.4,4.9,13.4c-1.5,5-5.3,8.8-9.3,12.2
	c-1.4,1.2-2.9,2.4-4.8,2.7c-4.1,0.7-8.2-3.3-12-1.7"/>
<path class="st0" d="M512.6,108.8c-2-3.6-2.3-8.1-0.7-11.9c1.9-4.5,6.2-8.2,6-13.1c-0.1-4.1-3.5-8-2.4-12c1.1-4.3,7-6.8,6.6-11.2
	c-0.2-2.1-1.8-3.8-2.3-5.9c-0.6-2.4,0.6-5,2.3-6.8s4.1-2.8,6.5-3.7c-2.5,3.4-2.4,8.6,0.3,11.9c1.8,2.2,4.7,3.8,5.3,6.7
	c1,4.5-4.7,9-2.7,13.3c0.6,1.3,1.8,2.2,2.6,3.4c2.8,4.4-1.6,9.9-1.8,15.1c-0.1,3,1.3,5.9,1.4,8.9c0.2,3-1.7,6.6-4.7,6.4
	c-1.2-0.1-2.2-0.8-3.3-1.3c-4-1.9-9-1.4-12.6,1.3c3.8-1.4,8-2,12.1-1.6"/>
<ellipse class="st2" cx="495.6" cy="58.1" rx="5.3" ry="2"/>
<g>
	<g>
		<path d="M495.6,60c2.4,0,2.4-3.8,0-3.8C493.2,56.3,493.2,60,495.6,60L495.6,60z"/>
	</g>
</g>
<ellipse class="st2" cx="510.9" cy="58.1" rx="5.3" ry="2"/>
<g>
	<g>
		<path d="M510.9,60c2.4,0,2.4-3.8,0-3.8C508.5,56.3,508.5,60,510.9,60L510.9,60z"/>
	</g>
</g>
<path class="st3" d="M486.3,64.7c-0.1-3.8-0.1-7.9,2.3-10.8c1.9-2.3,4.9-3.1,7.7-3.9c3.2-0.8,6.5-1.7,9.7-2.5
	c1.2-0.3,2.5-0.6,3.7-0.3c1.3,0.3,2.4,1.2,3.4,2.2c3.8,3.4,7.8,7.3,8.2,12.5c0.2,2.5-0.5,5-0.8,7.6c-0.3,2.5-0.1,5.4,1.5,7.2
	c1.7,1.9,4.6,2.4,6,4.6c1.3,2,1.5,5.4,3.8,5.7c0.7,0.1,1.4-0.3,2.1-0.5c1.8-0.5,3.9-0.1,4.9,1.5s0.3,4.3-1.5,4.6
	c-1.2,0.2-2.2-0.7-3.3-1.3c-1-0.6-2.5-0.9-3.3,0.1c-0.8,1-0.1,2.6,0.6,3.7c0.9,1.2,1.9,2.4,2.3,3.8c0.5,1.4,0.3,3.3-0.9,4.2
	c-0.5,0.4-1.2,0.6-1.9,0.6c-2.4,0-4.6-1.6-6.5-3.2c-1.9-1.6-3.8-3.5-6.2-4c-2.4-0.5-5.4,0.9-5.6,3.5c-0.1,0.6,0,1.2-0.2,1.8
	c-0.6,1.3-2.5,0.8-3.4-0.2c-2-2.1-2.1-5.5-3-8.3c-0.9-2.8-4-5.6-6.3-3.9c-1.8,1.3-1.7,4.1-1.5,6.4c0.3,2.4,0.6,4.9,0.9,7.3
	c0.1,0.8,0.2,1.6-0.1,2.3c-0.8,2.4-4.4,1.9-5.7-0.2c-1.4-2-1.4-4.7-2.2-7.1s-2.8-4.8-5.1-4.1c-1.1,0.4-1.9,1.4-2.7,2.2
	c-2.8,3-6.9,4.8-10.9,4.7c-1,0-2.1-0.2-2.9-0.9c-1.7-1.6-0.8-4.8,1-6.2c1.8-1.5,4.1-2,6.1-3.2s3.5-3.9,2.4-6
	c-1.9-3.6-8.7-1.4-9.7-5.3c-0.5-2,1.4-4,3.3-4.4c2-0.4,3.9,0.2,5.9,0.4c2,0.2,4.3-0.3,5.3-2.1"/>
<g>
	<g>
		<path d="M514.3,111.2c4.9-0.1,9.8,0,14.7,0.4c3.2,0.2,3.2-4.8,0-5c-4.9-0.4-9.8-0.5-14.7-0.4C511.1,106.3,511.1,111.3,514.3,111.2
			L514.3,111.2z"/>
	</g>
</g>
<g>
	<g>
		<path d="M480.3,110c1.4,0,2.9,0,4.3,0c1.4,0,2.5-1.1,2.5-2.5c0-1.4-1.1-2.5-2.5-2.5c-1.4,0-2.9,0-4.3,0c-1.4,0-2.5,1.1-2.5,2.5
			C477.8,108.8,479,110,480.3,110L480.3,110z"/>
	</g>
</g>
<circle class="st3" cx="448.8" cy="37.3" r="3.2"/>
<circle class="st3" cx="472.5" cy="50.9" r="3.9"/>
<circle class="st3" cx="475.3" cy="34.2" r="3.1"/>
<circle class="st3" cx="531.9" cy="34.1" r="2.9"/>
</svg>
